<svg id="Layer_1" data-name="Layer 1" xmlns="http://www.w3.org/2000/svg" viewBox="0 0 500 500"><defs><style>.cls-1{fill:#fff;}.cls-2,.cls-4{fill:#0d2343;}.cls-3{fill:#8eb094;}.cls-4{font-size:14.3px;font-family:CoolveticaLt-Regular, Coolvetica;letter-spacing:0.04em;}.cls-5{letter-spacing:0.01em;}.cls-6{letter-spacing:0.01em;}.cls-7{letter-spacing:-0.14em;}</style></defs><rect class="cls-1" width="500" height="500"/><path class="cls-2" d="M213.77,268.37H196v-76h17.73Z"/><path class="cls-2" d="M279.89,214.88h-16q-.66-10.23-13.69-10.24-11.9,0-11.9,7.57a6.69,6.69,0,0,0,2.22,5c1.49,1.41,4.23,2.63,8.24,3.67q17.79,4.67,23.48,7.79,10.13,5.44,10.12,17.47,0,11.34-7.68,17.36t-22,6q-14.69,0-23.09-6.23t-8.62-18.47h16.25a9.84,9.84,0,0,0,4.22,7.85q4,2.94,11.35,3,13.14,0,13.13-8.8a6.38,6.38,0,0,0-2.44-5.34q-2.46-1.89-8.46-3.56-14.91-4.11-20.25-6.56-6.34-3-9.24-7.23a18.5,18.5,0,0,1-2.89-10.69q0-10.35,6.95-16.58t20.09-6.23q13.46,0,21.53,6.51T279.89,214.88Z"/><path class="cls-2" d="M339.36,237H307.22v31.34H289.49v-76h54.79v14.76H307.22v15h32.14Z"/><path class="cls-2" d="M369.16,268.37H351.43v-76h33.63q11.43,0,18.19,6.63T410,216.78q0,11.1-6.7,17.56t-18.24,6.47h-15.9Zm0-41.75h13.95c3.66,0,6.47-.89,8.41-2.69a9.37,9.37,0,0,0,2.92-7.26,8.94,8.94,0,0,0-2.92-7c-1.94-1.75-4.75-2.63-8.41-2.63H369.16Z"/><polygon class="cls-3" points="151.07 227.09 127.88 262 104.68 227.09 113.21 214.24 127.88 236.32 142.54 214.24 151.07 227.09"/><polygon class="cls-2" points="165.75 249.16 127.88 306.16 90 249.16 98.53 236.32 127.88 280.48 157.21 236.32 165.75 249.16"/><polygon class="cls-2" points="136.41 205 127.98 217.69 119.34 205.01 127.88 192.16 128.13 192.55 136.41 205"/><line class="cls-2" x1="127.87" y1="262" x2="127.79" y2="262.13"/><text class="cls-4" transform="translate(196.07 290.79)">IN<tspan class="cls-5" x="11.32" y="0">S</tspan><tspan x="19.29" y="0">TITUTE OF SU</tspan><tspan class="cls-6" x="105.76" y="0">S</tspan><tspan class="cls-7" x="113.72" y="0">T</tspan><tspan x="119.46" y="0">AINABLE</tspan><tspan x="0" y="15.25">FINANCE PROFESSIONALS</tspan></text></svg>