<?xml version="1.0" encoding="UTF-8"?>
<svg id="Layer_1" data-name="Layer 1" xmlns="http://www.w3.org/2000/svg" viewBox="0 0 1080 1080">
  <defs>
    <style>
      .cls-1 {
        letter-spacing: -.14em;
      }

      .cls-2 {
        letter-spacing: .04em;
      }

      .cls-3, .cls-4 {
        fill: #f8f8f6;
      }

      .cls-3, .cls-5, .cls-6 {
        stroke-width: 0px;
      }

      .cls-4 {
        font-family: CoolveticaLt-Regular, Coolvetica;
        font-size: 36.33px;
      }

      .cls-7 {
        letter-spacing: 0em;
      }

      .cls-5 {
        fill: #0d2343;
      }

      .cls-6 {
        fill: #8eb094;
      }
    </style>
  </defs>
  <rect class="cls-5" y="0" width="1080" height="1080"/>
  <g>
    <path class="cls-3" d="M447.95,586.68h-45.05v-192.98h45.05v192.98Z"/>
    <path class="cls-3" d="M615.96,450.77h-40.71c-1.13-17.34-12.72-26.01-34.78-26.01-20.17,0-30.25,6.41-30.25,19.23,0,4.9,1.88,9.14,5.65,12.72,3.77,3.58,10.74,6.69,20.92,9.33,30.15,7.92,50.04,14.52,59.66,19.79,17.15,9.24,25.73,24.03,25.73,44.39,0,19.23-6.5,33.93-19.51,44.11-13.01,10.18-31.67,15.27-55.98,15.27s-44.44-5.28-58.67-15.83c-14.23-10.55-21.54-26.2-21.91-46.93h41.28c.38,8.3,3.96,14.94,10.74,19.93,6.79,5,16.4,7.49,28.84,7.49,22.24,0,33.36-7.44,33.36-22.34,0-5.84-2.08-10.36-6.22-13.57-4.15-3.2-11.31-6.22-21.49-9.05-25.26-6.97-42.41-12.53-51.46-16.68-10.74-5.09-18.57-11.21-23.47-18.38-4.9-7.16-7.35-16.21-7.35-27.14,0-17.53,5.89-31.57,17.67-42.13,11.78-10.55,28.79-15.83,51.03-15.83s41.04,5.51,54.71,16.54c13.66,11.03,21.06,26.06,22.19,45.1Z"/>
    <path class="cls-3" d="M767.06,507.05h-81.67v79.63h-45.05v-192.98h139.22v37.49h-94.17v38.07h81.67v37.78Z"/>
    <path class="cls-3" d="M842.77,586.68h-45.05v-192.98h85.45c19.37,0,34.78,5.62,46.21,16.86,11.43,11.24,17.15,26.26,17.15,45.05s-5.67,33.67-17,44.61c-11.34,10.95-26.79,16.42-46.36,16.42h-40.4v70.04ZM842.77,480.6h35.46c9.3,0,16.42-2.27,21.36-6.83,4.94-4.55,7.41-10.7,7.41-18.46s-2.47-13.27-7.41-17.73c-4.94-4.45-12.06-6.68-21.36-6.68h-35.46v49.7Z"/>
    <g>
      <polygon class="cls-6" points="288.64 481.78 229.7 570.5 170.75 481.78 192.43 449.14 229.7 505.24 266.96 449.14 288.64 481.78"/>
      <polygon class="cls-3" points="325.92 537.88 229.7 682.7 133.47 537.88 155.15 505.24 229.7 617.45 304.23 505.24 325.92 537.88"/>
      <polygon class="cls-3" points="251.37 425.67 229.95 457.91 208.02 425.68 229.7 393.05 230.35 394.03 251.37 425.67"/>
      <line class="cls-3" x1="229.7" y1="570.5" x2="229.48" y2="570.82"/>
    </g>
    <text class="cls-4" transform="translate(402.98 643.65)"><tspan class="cls-2" x="0" y="0">IN</tspan><tspan class="cls-7" x="28.77" y="0">S</tspan><tspan class="cls-2" x="49.01" y="0">TITUTE OF SU</tspan><tspan class="cls-7" x="268.73" y="0">S</tspan><tspan class="cls-1" x="288.96" y="0">T</tspan><tspan class="cls-2" x="303.53" y="0">AINABLE</tspan><tspan class="cls-2"><tspan x="0" y="38.75">FINANCE PROFESSIONALS</tspan></tspan></text>
  </g>
</svg>